<svg xmlns="http://www.w3.org/2000/svg" width="19.247" height="17" viewBox="0 0 19.247 17"><g transform="translate(-450 -258)"><circle cx="6.5" cy="6.5" r="6.5" transform="translate(450 262)" fill="#d9d9d9"/><g transform="translate(1534.883 -3707.451)"><path d="M-1077.854,3980.451a2.182,2.182,0,0,1-1.41-.518l-3.323-2.825a2.328,2.328,0,0,1-.316-3.23,2.292,2.292,0,0,1,1.78-.843,2.3,2.3,0,0,1,1.488.547l1.612,1.37,8.428-8.792a2.31,2.31,0,0,1,1.66-.708,2.288,2.288,0,0,1,1.591.64,2.283,2.283,0,0,1,.708,1.611,2.285,2.285,0,0,1-.639,1.64l-10.006,10.438A2.189,2.189,0,0,1-1077.854,3980.451Z" transform="translate(0 0)" fill="#ffad40"/><path d="M-1018.484,3974.589a.22.22,0,0,1-.156-.065.221.221,0,0,1,0-.313l1.909-1.909a.221.221,0,0,1,.313,0,.221.221,0,0,1,0,.313l-1.909,1.91A.221.221,0,0,1-1018.484,3974.589Z" transform="translate(2987.916 4500.406) rotate(83)" fill="#d17700"/></g></g></svg>